<svg width="34" height="9" viewBox="0 0 34 9" fill="none" xmlns="http://www.w3.org/2000/svg">
<path d="M16.24 8.2389L17.2832 0.400002H18.5192L17.476 8.2389H16.24ZM15.6048 3.18346L15.7631 1.99395H19.7711L19.6128 3.18346H15.6048Z" fill="white"/>
<path d="M16.24 8.2389L17.2832 0.400002H18.5192L17.476 8.2389H16.24ZM15.6048 3.18346L15.7631 1.99395H19.7711L19.6128 3.18346H15.6048Z" fill="url(#paint0_linear_1_20)" fill-opacity="0.2"/>
<path d="M10.3558 8.46275C9.83577 8.46275 9.37876 8.32001 8.98475 8.03452C8.59875 7.74904 8.31045 7.36047 8.11988 6.8688C7.92931 6.37713 7.87518 5.82203 7.95749 5.20348C8.04086 4.577 8.24273 4.0219 8.5631 3.53816C8.89253 3.0465 9.29571 2.66189 9.77264 2.38433C10.2576 2.10678 10.776 1.968 11.328 1.968C11.656 1.968 11.9497 2.01558 12.2091 2.11074C12.4684 2.2059 12.6864 2.34072 12.8632 2.51518C13.0491 2.68171 13.1912 2.876 13.2897 3.09804C13.3961 3.32008 13.4485 3.55799 13.4467 3.81175L13.1834 3.71659L13.3986 2.09885H14.6466L13.8156 8.3438H12.5676L12.7655 6.8569L13.0645 6.77364C12.9881 6.98775 12.8601 7.1979 12.6806 7.40408C12.5103 7.60233 12.2985 7.78076 12.0454 7.93936C11.8003 8.09796 11.5314 8.22485 11.2388 8.32001C10.9541 8.41517 10.6598 8.46275 10.3558 8.46275ZM10.8301 7.33271C11.2061 7.33271 11.5503 7.24151 11.8626 7.05912C12.1748 6.87673 12.4321 6.62693 12.6343 6.30973C12.8455 5.98459 12.9786 5.61584 13.0335 5.20348C13.0873 4.79905 13.0513 4.43823 12.9255 4.12102C12.8077 3.80382 12.617 3.55402 12.3533 3.37163C12.0895 3.18924 11.7697 3.09804 11.3937 3.09804C11.0257 3.09804 10.6855 3.18924 10.3733 3.37163C10.069 3.55402 9.81175 3.80382 9.60154 4.12102C9.39933 4.43823 9.27131 4.79905 9.21749 5.20348C9.16262 5.61584 9.19355 5.98459 9.31028 6.30973C9.43607 6.62693 9.62683 6.87673 9.88255 7.05912C10.1463 7.24151 10.4621 7.33271 10.8301 7.33271Z" fill="white"/>
<path d="M10.3558 8.46275C9.83577 8.46275 9.37876 8.32001 8.98475 8.03452C8.59875 7.74904 8.31045 7.36047 8.11988 6.8688C7.92931 6.37713 7.87518 5.82203 7.95749 5.20348C8.04086 4.577 8.24273 4.0219 8.5631 3.53816C8.89253 3.0465 9.29571 2.66189 9.77264 2.38433C10.2576 2.10678 10.776 1.968 11.328 1.968C11.656 1.968 11.9497 2.01558 12.2091 2.11074C12.4684 2.2059 12.6864 2.34072 12.8632 2.51518C13.0491 2.68171 13.1912 2.876 13.2897 3.09804C13.3961 3.32008 13.4485 3.55799 13.4467 3.81175L13.1834 3.71659L13.3986 2.09885H14.6466L13.8156 8.3438H12.5676L12.7655 6.8569L13.0645 6.77364C12.9881 6.98775 12.8601 7.1979 12.6806 7.40408C12.5103 7.60233 12.2985 7.78076 12.0454 7.93936C11.8003 8.09796 11.5314 8.22485 11.2388 8.32001C10.9541 8.41517 10.6598 8.46275 10.3558 8.46275ZM10.8301 7.33271C11.2061 7.33271 11.5503 7.24151 11.8626 7.05912C12.1748 6.87673 12.4321 6.62693 12.6343 6.30973C12.8455 5.98459 12.9786 5.61584 13.0335 5.20348C13.0873 4.79905 13.0513 4.43823 12.9255 4.12102C12.8077 3.80382 12.617 3.55402 12.3533 3.37163C12.0895 3.18924 11.7697 3.09804 11.3937 3.09804C11.0257 3.09804 10.6855 3.18924 10.3733 3.37163C10.069 3.55402 9.81175 3.80382 9.60154 4.12102C9.39933 4.43823 9.27131 4.79905 9.21749 5.20348C9.16262 5.61584 9.19355 5.98459 9.31028 6.30973C9.43607 6.62693 9.62683 6.87673 9.88255 7.05912C10.1463 7.24151 10.4621 7.33271 10.8301 7.33271Z" fill="url(#paint1_linear_1_20)" fill-opacity="0.2"/>
<path d="M22.9318 8.34275C22.3158 8.34275 21.7822 8.20397 21.3312 7.92642C20.8892 7.64093 20.5603 7.25632 20.3447 6.77259C20.1301 6.28092 20.0645 5.72185 20.1479 5.09537C20.2313 4.4689 20.4451 3.91379 20.7895 3.43005C21.1349 2.93839 21.5661 2.55378 22.0831 2.27622C22.6091 1.99074 23.18 1.848 23.796 1.848C24.404 1.848 24.9291 1.99074 25.3711 2.27622C25.8221 2.55378 26.1549 2.93839 26.3695 3.43005C26.5851 3.91379 26.6513 4.4689 26.5679 5.09537C26.4845 5.72185 26.2701 6.28092 25.9247 6.77259C25.5803 7.25632 25.1452 7.64093 24.6192 7.92642C24.1022 8.20397 23.5398 8.34275 22.9318 8.34275ZM23.0806 7.2246C23.4566 7.2246 23.8047 7.13341 24.125 6.95101C24.4463 6.76069 24.7121 6.50693 24.9223 6.18973C25.1335 5.86459 25.2621 5.49981 25.3079 5.09537C25.3708 4.68301 25.3393 4.31822 25.2135 4.00102C25.0888 3.67589 24.8906 3.42212 24.6188 3.23973C24.3471 3.05734 24.0233 2.96614 23.6473 2.96614C23.2713 2.96614 22.9186 3.0613 22.5893 3.25163C22.269 3.43402 22.0032 3.68778 21.792 4.01291C21.5817 4.33012 21.4537 4.69094 21.4079 5.09537C21.3461 5.49981 21.3775 5.86459 21.5023 6.18973C21.6281 6.50693 21.8263 6.76069 22.097 6.95101C22.3767 7.13341 22.7046 7.2246 23.0806 7.2246Z" fill="white"/>
<path d="M22.9318 8.34275C22.3158 8.34275 21.7822 8.20397 21.3312 7.92642C20.8892 7.64093 20.5603 7.25632 20.3447 6.77259C20.1301 6.28092 20.0645 5.72185 20.1479 5.09537C20.2313 4.4689 20.4451 3.91379 20.7895 3.43005C21.1349 2.93839 21.5661 2.55378 22.0831 2.27622C22.6091 1.99074 23.18 1.848 23.796 1.848C24.404 1.848 24.9291 1.99074 25.3711 2.27622C25.8221 2.55378 26.1549 2.93839 26.3695 3.43005C26.5851 3.91379 26.6513 4.4689 26.5679 5.09537C26.4845 5.72185 26.2701 6.28092 25.9247 6.77259C25.5803 7.25632 25.1452 7.64093 24.6192 7.92642C24.1022 8.20397 23.5398 8.34275 22.9318 8.34275ZM23.0806 7.2246C23.4566 7.2246 23.8047 7.13341 24.125 6.95101C24.4463 6.76069 24.7121 6.50693 24.9223 6.18973C25.1335 5.86459 25.2621 5.49981 25.3079 5.09537C25.3708 4.68301 25.3393 4.31822 25.2135 4.00102C25.0888 3.67589 24.8906 3.42212 24.6188 3.23973C24.3471 3.05734 24.0233 2.96614 23.6473 2.96614C23.2713 2.96614 22.9186 3.0613 22.5893 3.25163C22.269 3.43402 22.0032 3.68778 21.792 4.01291C21.5817 4.33012 21.4537 4.69094 21.4079 5.09537C21.3461 5.49981 21.3775 5.86459 21.5023 6.18973C21.6281 6.50693 21.8263 6.76069 22.097 6.95101C22.3767 7.13341 22.7046 7.2246 23.0806 7.2246Z" fill="url(#paint2_linear_1_20)" fill-opacity="0.2"/>
<path d="M27.1516 8.3438L27.9826 2.09885H29.2186L29.0477 3.38352L28.8127 3.52627C28.9296 3.24871 29.1194 2.99495 29.382 2.76498C29.6457 2.52707 29.947 2.33675 30.286 2.19401C30.626 2.04334 30.9641 1.968 31.3001 1.968C31.7801 1.968 32.1674 2.06316 32.4621 2.25349C32.7578 2.43588 32.9603 2.7174 33.0697 3.09804C33.179 3.47868 33.1952 3.95846 33.1181 4.53735L32.6116 8.3438H31.3756L31.8711 4.62062C31.9185 4.26376 31.9096 3.97035 31.8442 3.74038C31.7799 3.50248 31.6545 3.33198 31.4683 3.22889C31.283 3.11787 31.0414 3.07028 30.7433 3.08615C30.5033 3.08615 30.278 3.1258 30.0674 3.2051C29.8579 3.27647 29.6682 3.37956 29.4983 3.51437C29.3363 3.64918 29.1992 3.80778 29.087 3.99018C28.9837 4.16464 28.9184 4.35496 28.891 4.56114L28.3876 8.3438H27.7756C27.6716 8.3438 27.5676 8.3438 27.4636 8.3438C27.3596 8.3438 27.2556 8.3438 27.1516 8.3438Z" fill="url(#paint3_linear_1_20)"/>
<path d="M27.1516 8.3438L27.9826 2.09885H29.2186L29.0477 3.38352L28.8127 3.52627C28.9296 3.24871 29.1194 2.99495 29.382 2.76498C29.6457 2.52707 29.947 2.33675 30.286 2.19401C30.626 2.04334 30.9641 1.968 31.3001 1.968C31.7801 1.968 32.1674 2.06316 32.4621 2.25349C32.7578 2.43588 32.9603 2.7174 33.0697 3.09804C33.179 3.47868 33.1952 3.95846 33.1181 4.53735L32.6116 8.3438H31.3756L31.8711 4.62062C31.9185 4.26376 31.9096 3.97035 31.8442 3.74038C31.7799 3.50248 31.6545 3.33198 31.4683 3.22889C31.283 3.11787 31.0414 3.07028 30.7433 3.08615C30.5033 3.08615 30.278 3.1258 30.0674 3.2051C29.8579 3.27647 29.6682 3.37956 29.4983 3.51437C29.3363 3.64918 29.1992 3.80778 29.087 3.99018C28.9837 4.16464 28.9184 4.35496 28.891 4.56114L28.3876 8.3438H27.7756C27.6716 8.3438 27.5676 8.3438 27.4636 8.3438C27.3596 8.3438 27.2556 8.3438 27.1516 8.3438Z" fill="url(#paint4_linear_1_20)" fill-opacity="0.2"/>
<path d="M1.41558 5.80483L1.53511 4.36552L6.52005 0H8.22405L1.41558 5.80483ZM1.86781e-07 8.3266L1.10805 0H2.40405L1.296 8.3266H1.86781e-07ZM5.568 8.3266L2.91869 4.06814L3.98791 3.24737L7.188 8.3266H5.568Z" fill="white"/>
<path d="M1.41558 5.80483L1.53511 4.36552L6.52005 0H8.22405L1.41558 5.80483ZM1.86781e-07 8.3266L1.10805 0H2.40405L1.296 8.3266H1.86781e-07ZM5.568 8.3266L2.91869 4.06814L3.98791 3.24737L7.188 8.3266H5.568Z" fill="url(#paint5_linear_1_20)" fill-opacity="0.2"/>
<defs>
<linearGradient id="paint0_linear_1_20" x1="17.9792" y1="0.400002" x2="17.9792" y2="8.2389" gradientUnits="userSpaceOnUse">
<stop stop-opacity="0.2"/>
<stop offset="1"/>
</linearGradient>
<linearGradient id="paint1_linear_1_20" x1="11.526" y1="1.968" x2="11.526" y2="8.46275" gradientUnits="userSpaceOnUse">
<stop stop-opacity="0"/>
<stop offset="1"/>
</linearGradient>
<linearGradient id="paint2_linear_1_20" x1="23.79" y1="1.848" x2="23.79" y2="8.34275" gradientUnits="userSpaceOnUse">
<stop stop-opacity="0.2"/>
<stop offset="0.9999"/>
</linearGradient>
<linearGradient id="paint3_linear_1_20" x1="30.7301" y1="1.968" x2="30.7301" y2="8.3438" gradientUnits="userSpaceOnUse">
<stop offset="0.9999" stop-color="white"/>
</linearGradient>
<linearGradient id="paint4_linear_1_20" x1="30.7301" y1="1.968" x2="30.7301" y2="8.3438" gradientUnits="userSpaceOnUse">
<stop stop-opacity="0.2"/>
<stop offset="1"/>
</linearGradient>
<linearGradient id="paint5_linear_1_20" x1="4.70205" y1="0" x2="4.70205" y2="8.3266" gradientUnits="userSpaceOnUse">
<stop stop-opacity="0"/>
<stop offset="1"/>
</linearGradient>
</defs>
</svg>
